<svg xmlns="http://www.w3.org/2000/svg" viewBox="0 0 1600 400" width="1600" height="400">
  <defs>
    <radialGradient id="warmGlow" cx="50%" cy="30%" r="70%">
      <stop offset="0%" stop-color="#D4845A" stop-opacity="0.25"/>
      <stop offset="50%" stop-color="#C75B39" stop-opacity="0.1"/>
      <stop offset="100%" stop-color="#2a1a0e" stop-opacity="0"/>
    </radialGradient>
    <radialGradient id="lampWarm" cx="50%" cy="50%" r="50%">
      <stop offset="0%" stop-color="#F5A623" stop-opacity="0.6"/>
      <stop offset="100%" stop-color="#F5A623" stop-opacity="0"/>
    </radialGradient>
    <linearGradient id="warmFloor" x1="0" y1="0" x2="0" y2="1">
      <stop offset="0%" stop-color="#3a2218"/>
      <stop offset="100%" stop-color="#2a1a0e"/>
    </linearGradient>
    <linearGradient id="wallGrad" x1="0" y1="0" x2="0" y2="1">
      <stop offset="0%" stop-color="#2a1a0e"/>
      <stop offset="100%" stop-color="#3a2218"/>
    </linearGradient>
  </defs>

  <!-- Background - warm dark -->
  <rect width="1600" height="400" fill="#2a1a0e"/>

  <!-- Back wall -->
  <rect x="0" y="0" width="1600" height="280" fill="url(#wallGrad)"/>

  <!-- Wall art / shelves -->
  <rect x="100" y="60" width="120" height="80" rx="2" fill="none" stroke="#5a3a28" stroke-width="1.5"/>
  <rect x="110" y="70" width="100" height="60" fill="#3a2218"/>
  <rect x="400" y="50" width="80" height="100" rx="2" fill="none" stroke="#5a3a28" stroke-width="1.5"/>
  <rect x="1100" y="55" width="130" height="85" rx="2" fill="none" stroke="#5a3a28" stroke-width="1.5"/>
  <rect x="1380" y="60" width="90" height="90" rx="2" fill="none" stroke="#5a3a28" stroke-width="1.5"/>

  <!-- Floor -->
  <rect x="0" y="280" width="1600" height="120" fill="url(#warmFloor)"/>

  <!-- Warm ambient glow -->
  <rect x="0" y="0" width="1600" height="400" fill="url(#warmGlow)"/>

  <!-- Pendant lights with warm glow -->
  <line x1="250" y1="0" x2="250" y2="65" stroke="#8a5a3a" stroke-width="1.5"/>
  <polygon points="240,65 260,65 268,82 232,82" fill="#6a4a2a"/>
  <circle cx="250" cy="74" r="5" fill="#F5A623" opacity="0.8"/>
  <circle cx="250" cy="82" r="60" fill="url(#lampWarm)"/>

  <line x1="550" y1="0" x2="550" y2="58" stroke="#8a5a3a" stroke-width="1.5"/>
  <polygon points="540,58 560,58 568,75 532,75" fill="#6a4a2a"/>
  <circle cx="550" cy="67" r="5" fill="#F5A623" opacity="0.8"/>
  <circle cx="550" cy="75" r="60" fill="url(#lampWarm)"/>

  <line x1="850" y1="0" x2="850" y2="62" stroke="#8a5a3a" stroke-width="1.5"/>
  <polygon points="840,62 860,62 868,79 832,79" fill="#6a4a2a"/>
  <circle cx="850" cy="71" r="5" fill="#F5A623" opacity="0.8"/>
  <circle cx="850" cy="79" r="60" fill="url(#lampWarm)"/>

  <line x1="1150" y1="0" x2="1150" y2="60" stroke="#8a5a3a" stroke-width="1.5"/>
  <polygon points="1140,60 1160,60 1168,77 1132,77" fill="#6a4a2a"/>
  <circle cx="1150" cy="69" r="5" fill="#F5A623" opacity="0.8"/>
  <circle cx="1150" cy="77" r="60" fill="url(#lampWarm)"/>

  <line x1="1420" y1="0" x2="1420" y2="66" stroke="#8a5a3a" stroke-width="1.5"/>
  <polygon points="1410,66 1430,66 1438,83 1402,83" fill="#6a4a2a"/>
  <circle cx="1420" cy="75" r="5" fill="#F5A623" opacity="0.8"/>
  <circle cx="1420" cy="83" r="60" fill="url(#lampWarm)"/>

  <!-- TABLE 1 with people (left) -->
  <ellipse cx="180" cy="300" rx="55" ry="12" fill="#5a3a28" stroke="#6a4a2a" stroke-width="1"/>
  <rect x="176" y="300" width="8" height="55" fill="#4a2a18"/>
  <!-- Plates -->
  <ellipse cx="165" cy="296" rx="10" ry="4" fill="#6a4a2a" stroke="#7a5a3a" stroke-width="0.5"/>
  <ellipse cx="198" cy="296" rx="10" ry="4" fill="#6a4a2a" stroke="#7a5a3a" stroke-width="0.5"/>
  <!-- Person 1 (left) - silhouette -->
  <ellipse cx="120" cy="260" rx="12" ry="12" fill="#4a2a18"/>
  <path d="M105,275 Q120,295 135,275" fill="#4a2a18"/>
  <rect x="108" y="275" width="24" height="35" rx="5" fill="#4a2a18"/>
  <!-- Person 2 (right) -->
  <ellipse cx="240" cy="258" rx="12" ry="12" fill="#3a2218"/>
  <path d="M225,273 Q240,293 255,273" fill="#3a2218"/>
  <rect x="228" y="273" width="24" height="35" rx="5" fill="#3a2218"/>

  <!-- TABLE 2 with people (center-left) -->
  <rect x="400" y="295" width="130" height="18" rx="4" fill="#5a3a28" stroke="#6a4a2a" stroke-width="1"/>
  <rect x="425" y="313" width="8" height="50" fill="#4a2a18"/>
  <rect x="497" y="313" width="8" height="50" fill="#4a2a18"/>
  <!-- Plates and glasses -->
  <ellipse cx="435" cy="291" rx="10" ry="4" fill="#6a4a2a" stroke="#7a5a3a" stroke-width="0.5"/>
  <ellipse cx="465" cy="291" rx="10" ry="4" fill="#6a4a2a" stroke="#7a5a3a" stroke-width="0.5"/>
  <ellipse cx="495" cy="291" rx="10" ry="4" fill="#6a4a2a" stroke="#7a5a3a" stroke-width="0.5"/>
  <line x1="450" y1="285" x2="450" y2="293" stroke="#7a5a3a" stroke-width="1"/>
  <ellipse cx="450" cy="284" rx="4" ry="5" fill="none" stroke="#7a5a3a" stroke-width="0.7"/>
  <!-- Person 3 -->
  <ellipse cx="415" cy="255" rx="11" ry="11" fill="#4a2a18"/>
  <rect x="404" y="268" width="22" height="33" rx="5" fill="#4a2a18"/>
  <!-- Person 4 -->
  <ellipse cx="465" cy="252" rx="11" ry="11" fill="#3a2a18"/>
  <rect x="454" y="265" width="22" height="36" rx="5" fill="#3a2a18"/>
  <!-- Person 5 -->
  <ellipse cx="515" cy="257" rx="11" ry="11" fill="#4a2a18"/>
  <rect x="504" y="270" width="22" height="33" rx="5" fill="#4a2a18"/>

  <!-- TABLE 3 with people (center) -->
  <ellipse cx="730" cy="305" rx="52" ry="11" fill="#5a3a28" stroke="#6a4a2a" stroke-width="1"/>
  <rect x="726" y="305" width="8" height="55" fill="#4a2a18"/>
  <!-- Plates -->
  <ellipse cx="715" cy="301" rx="10" ry="4" fill="#6a4a2a" stroke="#7a5a3a" stroke-width="0.5"/>
  <ellipse cx="745" cy="301" rx="10" ry="4" fill="#6a4a2a" stroke="#7a5a3a" stroke-width="0.5"/>
  <!-- Person 6 -->
  <ellipse cx="678" cy="268" rx="12" ry="12" fill="#3a2218"/>
  <rect x="666" y="282" width="24" height="32" rx="5" fill="#3a2218"/>
  <!-- Person 7 -->
  <ellipse cx="782" cy="265" rx="12" ry="12" fill="#4a2a18"/>
  <rect x="770" y="279" width="24" height="34" rx="5" fill="#4a2a18"/>

  <!-- TABLE 4 with people (center-right) -->
  <ellipse cx="1000" cy="310" rx="50" ry="11" fill="#5a3a28" stroke="#6a4a2a" stroke-width="1"/>
  <rect x="996" y="310" width="8" height="52" fill="#4a2a18"/>
  <ellipse cx="988" cy="306" rx="10" ry="4" fill="#6a4a2a" stroke="#7a5a3a" stroke-width="0.5"/>
  <ellipse cx="1014" cy="306" rx="10" ry="4" fill="#6a4a2a" stroke="#7a5a3a" stroke-width="0.5"/>
  <!-- Person 8 -->
  <ellipse cx="950" cy="272" rx="11" ry="11" fill="#3a2a18"/>
  <rect x="939" y="285" width="22" height="33" rx="5" fill="#3a2a18"/>
  <!-- Person 9 -->
  <ellipse cx="1000" cy="270" rx="11" ry="11" fill="#4a2a18"/>
  <rect x="989" y="283" width="22" height="34" rx="5" fill="#4a2a18"/>
  <!-- Person 10 -->
  <ellipse cx="1050" cy="274" rx="11" ry="11" fill="#3a2218"/>
  <rect x="1039" y="287" width="22" height="31" rx="5" fill="#3a2218"/>

  <!-- TABLE 5 with people (right) -->
  <rect x="1220" y="298" width="120" height="18" rx="4" fill="#5a3a28" stroke="#6a4a2a" stroke-width="1"/>
  <rect x="1245" y="316" width="8" height="48" fill="#4a2a18"/>
  <rect x="1312" y="316" width="8" height="48" fill="#4a2a18"/>
  <ellipse cx="1255" cy="294" rx="10" ry="4" fill="#6a4a2a" stroke="#7a5a3a" stroke-width="0.5"/>
  <ellipse cx="1305" cy="294" rx="10" ry="4" fill="#6a4a2a" stroke="#7a5a3a" stroke-width="0.5"/>
  <!-- Person 11 -->
  <ellipse cx="1240" cy="258" rx="11" ry="11" fill="#4a2a18"/>
  <rect x="1229" y="271" width="22" height="33" rx="5" fill="#4a2a18"/>
  <!-- Person 12 -->
  <ellipse cx="1320" cy="260" rx="11" ry="11" fill="#3a2a18"/>
  <rect x="1309" y="273" width="22" height="31" rx="5" fill="#3a2a18"/>

  <!-- TABLE 6 (far right, small) -->
  <ellipse cx="1480" cy="302" rx="45" ry="10" fill="#5a3a28" stroke="#6a4a2a" stroke-width="1"/>
  <rect x="1476" y="302" width="8" height="52" fill="#4a2a18"/>
  <ellipse cx="1475" cy="298" rx="9" ry="3.5" fill="#6a4a2a" stroke="#7a5a3a" stroke-width="0.5"/>
  <!-- Person 13 -->
  <ellipse cx="1435" cy="265" rx="11" ry="11" fill="#3a2218"/>
  <rect x="1424" y="278" width="22" height="30" rx="5" fill="#3a2218"/>
  <!-- Person 14 -->
  <ellipse cx="1520" cy="268" rx="11" ry="11" fill="#4a2a18"/>
  <rect x="1509" y="281" width="22" height="28" rx="5" fill="#4a2a18"/>

  <!-- Standing person / waiter near center -->
  <ellipse cx="640" cy="245" rx="10" ry="10" fill="#5a3a28"/>
  <rect x="631" y="257" width="18" height="45" rx="4" fill="#5a3a28"/>
  <rect x="633" y="302" width="6" height="35" fill="#4a2a18"/>
  <rect x="641" y="302" width="6" height="35" fill="#4a2a18"/>
  <!-- Tray -->
  <line x1="650" y1="268" x2="670" y2="258" stroke="#7a5a3a" stroke-width="1.5"/>
  <ellipse cx="672" cy="256" rx="12" ry="4" fill="#6a4a2a"/>

  <!-- Warm floor reflections -->
  <ellipse cx="250" cy="370" rx="90" ry="10" fill="#3a2218" opacity="0.3"/>
  <ellipse cx="550" cy="375" rx="90" ry="10" fill="#3a2218" opacity="0.3"/>
  <ellipse cx="850" cy="372" rx="90" ry="10" fill="#3a2218" opacity="0.3"/>
  <ellipse cx="1150" cy="370" rx="90" ry="10" fill="#3a2218" opacity="0.3"/>
  <ellipse cx="1420" cy="374" rx="80" ry="9" fill="#3a2218" opacity="0.3"/>

  <!-- Extra warm overlay -->
  <rect x="0" y="0" width="1600" height="400" fill="#D4845A" opacity="0.04"/>
</svg>
